# xmcd CD database file
#
# Track frame offsets:
#	150
#	17837
#	32227
#	48090
#	60407
#	72702
#	87087
#	100665
#	115415
#	131631
#	144876
#	162991
#
# Disc length: 2282 seconds
#
# Revision: 0
# Processed by: cddbd v1.5.2PL0 Copyright (c) Steve Scherf et al.
# Submitted via: CDex 1.78
#
DISCID=9e08e80c
DTITLE=Chris Guenther - The 5th
DYEAR=2013
DGENRE=Country
TTITLE0=One More Moment In The Sun
TTITLE1=This Town Ain't Big Enough For The Both Of Us
TTITLE2=Passing Freight Trains
TTITLE3=I'm Gonna Find You
TTITLE4=She Wasn't In It For Love [She Was In It For Money]
TTITLE5=Ghost Town
TTITLE6=Outlaw Band
TTITLE7=Margarita Monday
TTITLE8=Walking Up Hills Both Ways
TTITLE9=Highlifes With Low-Lifes
TTITLE10=Red River Valley
TTITLE11=La Balacera
EXTD=YEAR: 2013
EXTT0=
EXTT1=
EXTT2=
EXTT3=
EXTT4=
EXTT5=
EXTT6=
EXTT7=
EXTT8=
EXTT9=
EXTT10=
EXTT11=
PLAYORDER=
